<svg xmlns="http://www.w3.org/2000/svg" width="805" height="600"><rect width="805" height="600" x="0" y="0" fill="#FFFFFF" id="background"/><g transform="translate(402.5,300)" id="viz"><g id="links"><path d="M0,0C-26.10462417528706,17.925578775727054,-26.10462417528706,17.925578775727054,-52.20924835057412,35.85115755145411" fill="none" stroke="#ccc"/><path d="M-52.20924835057412,35.85115755145411C-78.31387252586117,53.77673632718116,77.72644077393404,54.6223434559167,103.63525436524539,72.8297912745556" fill="none" stroke="#ccc"/><path d="M-52.20924835057412,35.85115755145411C-78.31387252586117,53.77673632718116,-88.42146949377593,-34.73677780913555,-117.89529265836792,-46.31570374551408" fill="none" stroke="#ccc"/><path d="M-52.20924835057412,35.85115755145411C-78.31387252586117,53.77673632718116,-23.064707733535986,-92.15757840333352,-30.752943644714648,-122.87677120444471" fill="none" stroke="#ccc"/><path d="M103.63525436524539,72.8297912745556C129.54406795655675,91.0372390931945,38.44117955589329,-153.59596400555589,46.12941546707195,-184.31515680666703" fill="none" stroke="#ccc"/><path d="M103.63525436524539,72.8297912745556C129.54406795655675,91.0372390931945,107.8923771877467,-115.88217891126072,129.47085262529603,-139.05861469351285" fill="none" stroke="#ccc"/><path d="M103.63525436524539,72.8297912745556C129.54406795655675,91.0372390931945,150.12921854264823,-50.30568739435148,180.15506225117787,-60.36682487322177" fill="none" stroke="#ccc"/><path d="M103.63525436524539,72.8297912745556C129.54406795655675,91.0372390931945,156.0033621343,27.062805605459648,187.20403456116,32.47536672655158" fill="none" stroke="#ccc"/><path d="M103.63525436524539,72.8297912745556C129.54406795655675,91.0372390931945,125.31955056767526,96.77011258627496,150.3834606812103,116.12413510352995" fill="none" stroke="#ccc"/><path d="M103.63525436524539,72.8297912745556C129.54406795655675,91.0372390931945,66.59345065053975,143.64803087720546,79.9121407806477,172.37763705264655" fill="none" stroke="#ccc"/><path d="M103.63525436524539,72.8297912745556C129.54406795655675,91.0372390931945,-6.389246063889325,158.2043677626491,-7.667095276667189,189.8452413151789" fill="none" stroke="#ccc"/><path d="M103.63525436524539,72.8297912745556C129.54406795655675,91.0372390931945,-77.31316874127103,138.17423198132204,-92.77580248952523,165.80907837758645" fill="none" stroke="#ccc"/><path d="M103.63525436524539,72.8297912745556C129.54406795655675,91.0372390931945,-131.48684181325237,88.20802046538168,-157.78421017590284,105.849624558458" fill="none" stroke="#ccc"/><path d="M-117.89529265836792,-46.31570374551408C-147.3691158229599,-57.894629681892596,-157.4256688287012,16.929360244278218,-188.9108025944414,20.31523229313386" fill="none" stroke="#ccc"/><path d="M-117.89529265836792,-46.31570374551408C-147.3691158229599,-57.894629681892596,-146.96033024771629,-58.92457702798223,-176.35239629725953,-70.70949243357867" fill="none" stroke="#ccc"/><path d="M-117.89529265836792,-46.31570374551408C-147.3691158229599,-57.894629681892596,-103.80686855726033,-119.55575471210126,-124.5682422687124,-143.4669056545215" fill="none" stroke="#ccc"/><path d="M-30.752943644714648,-122.87677120444471C-38.441179555893314,-153.59596400555589,-38.441179555893314,-153.59596400555589,-46.12941546707197,-184.31515680666703" fill="none" stroke="#ccc"/></g><g><circle transform="&#10;&#9;        rotate(145.52330978769115)&#10;&#9;        translate(0,0)&#10;&#9;      " fill="#1f77b4" r="5"/><circle transform="&#10;&#9;        rotate(145.52330978769115)&#10;&#9;        translate(63.333333333333336,0)&#10;&#9;      " fill="#1f77b4" r="5"/><circle transform="&#10;&#9;        rotate(35.09767390950584)&#10;&#9;        translate(126.66666666666667,0)&#10;&#9;      " fill="#1f77b4" r="5"/><circle transform="&#10;&#9;        rotate(201.4476083039874)&#10;&#9;        translate(126.66666666666667,0)&#10;&#9;      " fill="#1f77b4" r="5"/><circle transform="&#10;&#9;        rotate(255.9489456658764)&#10;&#9;        translate(126.66666666666667,0)&#10;&#9;      " fill="#1f77b4" r="5"/><circle transform="&#10;&#9;        rotate(-75.94894566587644)&#10;&#9;        translate(190,0)&#10;&#9;      " fill="#1f77b4" r="10"/><circle transform="&#10;&#9;        rotate(-47.04485954041916)&#10;&#9;        translate(190,0)&#10;&#9;      " fill="#1f77b4" r="7.905694150420947"/><circle transform="&#10;&#9;        rotate(-18.525103962562284)&#10;&#9;        translate(190,0)&#10;&#9;      " fill="#1f77b4" r="7.905694150420947"/><circle transform="&#10;&#9;        rotate(9.841487550073012)&#10;&#9;        translate(190,0)&#10;&#9;      " fill="#1f77b4" r="7.071067811865475"/><circle transform="&#10;&#9;        rotate(37.67484891190918)&#10;&#9;        translate(190,0)&#10;&#9;      " fill="#1f77b4" r="5"/><circle transform="&#10;&#9;        rotate(65.12814418816765)&#10;&#9;        translate(190,0)&#10;&#9;      " fill="#1f77b4" r="5"/><circle transform="&#10;&#9;        rotate(92.31269215801515)&#10;&#9;        translate(190,0)&#10;&#9;      " fill="#1f77b4" r="3.5355339059327373"/><circle transform="&#10;&#9;        rotate(119.22849282145162)&#10;&#9;        translate(190,0)&#10;&#9;      " fill="#1f77b4" r="3.5355339059327373"/><circle transform="&#10;&#9;        rotate(146.14429348488812)&#10;&#9;        translate(190,0)&#10;&#9;      " fill="#1f77b4" r="3.5355339059327373"/><circle transform="&#10;&#9;        rotate(173.86207160553482)&#10;&#9;        translate(190,0)&#10;&#9;      " fill="#1f77b4" r="7.905694150420947"/><circle transform="&#10;&#9;        rotate(201.8485970325924)&#10;&#9;        translate(190,0)&#10;&#9;      " fill="#1f77b4" r="5"/><circle transform="&#10;&#9;        rotate(229.03314500243994)&#10;&#9;        translate(190,0)&#10;&#9;      " fill="#1f77b4" r="3.5355339059327373"/><circle transform="&#10;&#9;        rotate(255.9489456658764)&#10;&#9;        translate(190,0)&#10;&#9;      " fill="#1f77b4" r="3.5355339059327373"/></g><g id="labels"><g transform="&#10;&#9;        rotate(145.52330978769115)&#10;&#9;        translate(0,0)&#10;&#9;        rotate(180)&#10;&#9;      "><text x="0" y="0" text-anchor="middle" dominant-baseline="text-before-edge" transform="translate(0,0)"><tspan x="6" y="0" dy="0" text-anchor="start" style="font-family: Arial, sans-serif; font-size: 10px; fill: black; font-weight: normal;"/></text></g><g transform="&#10;&#9;        rotate(145.52330978769115)&#10;&#9;        translate(63.333333333333336,0)&#10;&#9;        rotate(180)&#10;&#9;      "><text x="0" y="0" text-anchor="middle" dominant-baseline="text-before-edge" transform="translate(0,-5.6666669845581055)"><tspan x="6" y="0" dy="0" text-anchor="start" style="font-family: Arial, sans-serif; font-size: 10px; fill: black; font-weight: normal;">Felidae</tspan></text></g><g transform="&#10;&#9;        rotate(35.09767390950584)&#10;&#9;        translate(126.66666666666667,0)&#10;&#9;        rotate(0)&#10;&#9;      "><text x="0" y="0" text-anchor="middle" dominant-baseline="text-before-edge" transform="translate(0,-5.6666669845581055)"><tspan x="-6" y="0" dy="0" text-anchor="end" style="font-family: Arial, sans-serif; font-size: 10px; fill: black; font-weight: normal;">Felinae</tspan></text></g><g transform="&#10;&#9;        rotate(201.4476083039874)&#10;&#9;        translate(126.66666666666667,0)&#10;&#9;        rotate(180)&#10;&#9;      "><text x="0" y="0" text-anchor="middle" dominant-baseline="text-before-edge" transform="translate(0,-5.6666669845581055)"><tspan x="6" y="0" dy="0" text-anchor="start" style="font-family: Arial, sans-serif; font-size: 10px; fill: black; font-weight: normal;">Pantherinae</tspan></text></g><g transform="&#10;&#9;        rotate(255.9489456658764)&#10;&#9;        translate(126.66666666666667,0)&#10;&#9;        rotate(180)&#10;&#9;      "><text x="0" y="0" text-anchor="middle" dominant-baseline="text-before-edge" transform="translate(0,-5.6666669845581055)"><tspan x="6" y="0" dy="0" text-anchor="start" style="font-family: Arial, sans-serif; font-size: 10px; fill: black; font-weight: normal;">Acinonychinae</tspan></text></g><g transform="&#10;&#9;        rotate(-75.94894566587644)&#10;&#9;        translate(190,0)&#10;&#9;        rotate(0)&#10;&#9;      "><text x="0" y="0" text-anchor="middle" dominant-baseline="text-before-edge" transform="translate(0,-5.6666669845581055)"><tspan x="15" y="0" dy="0" text-anchor="start" style="font-family: Arial, sans-serif; font-size: 10px; fill: black; font-weight: bold;">3.375</tspan></text></g><g transform="&#10;&#9;        rotate(-47.04485954041916)&#10;&#9;        translate(190,0)&#10;&#9;        rotate(0)&#10;&#9;      "><text x="0" y="0" text-anchor="middle" dominant-baseline="text-before-edge" transform="translate(0,-5.6666669845581055)"><tspan x="12.905694150420947" y="0" dy="0" text-anchor="start" style="font-family: Arial, sans-serif; font-size: 10px; fill: black; font-weight: bold;">2</tspan></text></g><g transform="&#10;&#9;        rotate(-18.525103962562284)&#10;&#9;        translate(190,0)&#10;&#9;        rotate(0)&#10;&#9;      "><text x="0" y="0" text-anchor="middle" dominant-baseline="text-before-edge" transform="translate(0,-5.6666669845581055)"><tspan x="12.905694150420947" y="0" dy="0" text-anchor="start" style="font-family: Arial, sans-serif; font-size: 10px; fill: black; font-weight: bold;">4</tspan></text></g><g transform="&#10;&#9;        rotate(9.841487550073012)&#10;&#9;        translate(190,0)&#10;&#9;        rotate(0)&#10;&#9;      "><text x="0" y="0" text-anchor="middle" dominant-baseline="text-before-edge" transform="translate(0,-5.6666669845581055)"><tspan x="12.071067811865476" y="0" dy="0" text-anchor="start" style="font-family: Arial, sans-serif; font-size: 10px; fill: black; font-weight: bold;">2.75</tspan></text></g><g transform="&#10;&#9;        rotate(37.67484891190918)&#10;&#9;        translate(190,0)&#10;&#9;        rotate(0)&#10;&#9;      "><text x="0" y="0" text-anchor="middle" dominant-baseline="text-before-edge" transform="translate(0,-5.6666669845581055)"><tspan x="10" y="0" dy="0" text-anchor="start" style="font-family: Arial, sans-serif; font-size: 10px; fill: black; font-weight: bold;">4</tspan></text></g><g transform="&#10;&#9;        rotate(65.12814418816765)&#10;&#9;        translate(190,0)&#10;&#9;        rotate(0)&#10;&#9;      "><text x="0" y="0" text-anchor="middle" dominant-baseline="text-before-edge" transform="translate(0,-5.6666669845581055)"><tspan x="10" y="0" dy="0" text-anchor="start" style="font-family: Arial, sans-serif; font-size: 10px; fill: black; font-weight: bold;">2</tspan></text></g><g transform="&#10;&#9;        rotate(92.31269215801515)&#10;&#9;        translate(190,0)&#10;&#9;        rotate(180)&#10;&#9;      "><text x="0" y="0" text-anchor="middle" dominant-baseline="text-before-edge" transform="translate(0,-5.6666669845581055)"><tspan x="-8.535533905932738" y="0" dy="0" text-anchor="end" style="font-family: Arial, sans-serif; font-size: 10px; fill: black; font-weight: bold;">2</tspan></text></g><g transform="&#10;&#9;        rotate(119.22849282145162)&#10;&#9;        translate(190,0)&#10;&#9;        rotate(180)&#10;&#9;      "><text x="0" y="0" text-anchor="middle" dominant-baseline="text-before-edge" transform="translate(0,-5.6666669845581055)"><tspan x="-8.535533905932738" y="0" dy="0" text-anchor="end" style="font-family: Arial, sans-serif; font-size: 10px; fill: black; font-weight: bold;">2</tspan></text></g><g transform="&#10;&#9;        rotate(146.14429348488812)&#10;&#9;        translate(190,0)&#10;&#9;        rotate(180)&#10;&#9;      "><text x="0" y="0" text-anchor="middle" dominant-baseline="text-before-edge" transform="translate(0,-5.6666669845581055)"><tspan x="-8.535533905932738" y="0" dy="0" text-anchor="end" style="font-family: Arial, sans-serif; font-size: 10px; fill: black; font-weight: bold;">4</tspan></text></g><g transform="&#10;&#9;        rotate(173.86207160553482)&#10;&#9;        translate(190,0)&#10;&#9;        rotate(180)&#10;&#9;      "><text x="0" y="0" text-anchor="middle" dominant-baseline="text-before-edge" transform="translate(0,-5.6666669845581055)"><tspan x="-12.905694150420947" y="0" dy="0" text-anchor="end" style="font-family: Arial, sans-serif; font-size: 10px; fill: black; font-weight: bold;">4</tspan></text></g><g transform="&#10;&#9;        rotate(201.8485970325924)&#10;&#9;        translate(190,0)&#10;&#9;        rotate(180)&#10;&#9;      "><text x="0" y="0" text-anchor="middle" dominant-baseline="text-before-edge" transform="translate(0,-5.6666669845581055)"><tspan x="-10" y="0" dy="0" text-anchor="end" style="font-family: Arial, sans-serif; font-size: 10px; fill: black; font-weight: bold;">4</tspan></text></g><g transform="&#10;&#9;        rotate(229.03314500243994)&#10;&#9;        translate(190,0)&#10;&#9;        rotate(180)&#10;&#9;      "><text x="0" y="0" text-anchor="middle" dominant-baseline="text-before-edge" transform="translate(0,-5.6666669845581055)"><tspan x="-8.535533905932738" y="0" dy="0" text-anchor="end" style="font-family: Arial, sans-serif; font-size: 10px; fill: black; font-weight: bold;">3</tspan></text></g><g transform="&#10;&#9;        rotate(255.9489456658764)&#10;&#9;        translate(190,0)&#10;&#9;        rotate(180)&#10;&#9;      "><text x="0" y="0" text-anchor="middle" dominant-baseline="text-before-edge" transform="translate(0,-5.6666669845581055)"><tspan x="-8.535533905932738" y="0" dy="0" text-anchor="end" style="font-family: Arial, sans-serif; font-size: 10px; fill: black; font-weight: bold;">4</tspan></text></g></g></g></svg>